<svg xmlns="http://www.w3.org/2000/svg" viewBox="0 0 512 512" role="img" aria-labelledby="title desc">
  <title id="title">AI4SS 大篆印章标志</title>
  <desc id="desc">白文朱印，以大篆风格书写智輔社科，意为 AI-assisted social science。</desc>
  <path fill="#b52a20" fill-rule="evenodd" d="M36,39 33,42 32,85 33,459 62,484 347,485 455,483 476,457 477,444 477,219 479,54 453,28 60,26 53,31Z"/>
  <path fill="#fff8e9" fill-rule="evenodd" d="M56,66 55,69 55,156 54,157 54,175 55,176 55,189 54,190 54,196 55,197 54,198 54,204 55,205 55,220 54,221 54,239 55,240 55,260 54,261 54,269 55,270 55,281 54,282 54,286 55,287 55,298 54,299 55,338 54,339 54,353 55,355 54,358 55,359 55,417 56,418 55,421 55,441 56,444 73,460 276,460 277,461 284,461 285,460 436,460 438,459 452,445 454,441 454,423 455,422 455,399 454,398 454,391 455,390 455,353 454,352 454,342 455,341 455,334 454,333 454,301 455,300 454,298 454,193 455,192 455,181 454,180 454,163 455,162 454,161 455,159 455,129 454,128 455,93 454,92 454,83 455,82 455,74 453,69 438,54 434,52 403,52 402,51 400,52 389,52 388,51 372,51 371,52 346,52 345,51 73,51ZM78,63 91,63 92,62 102,62 103,63 115,63 116,62 126,62 127,63 131,63 132,62 138,62 139,63 153,63 154,62 164,62 165,63 167,62 184,62 185,63 197,63 198,62 219,62 220,63 427,63 433,67 443,77 444,81 444,112 443,113 443,121 444,122 444,132 443,133 443,142 444,143 444,156 443,157 443,170 444,171 444,182 443,183 443,196 444,197 444,220 443,221 443,229 444,230 444,240 443,241 443,248 444,249 444,257 443,258 443,274 444,275 444,281 443,282 443,296 444,297 444,314 443,315 443,335 444,336 444,340 443,341 443,347 444,348 443,379 444,380 444,396 443,397 443,406 444,407 444,416 443,417 443,421 444,422 444,429 443,430 443,436 431,448 429,449 80,449 66,435 66,427 65,426 65,418 66,417 66,402 65,401 65,391 66,390 66,371 65,370 65,358 66,357 66,342 65,341 65,331 66,330 66,314 65,313 65,308 66,307 66,299 65,298 65,291 66,290 66,275 65,274 65,266 66,265 66,259 65,258 65,251 66,250 66,239 65,238 65,226 66,225 65,222 66,218 66,210 65,209 65,205 66,204 66,191 65,190 65,180 66,179 66,170 65,169 65,163 66,162 65,159 65,153 66,152 66,141 65,140 66,118 65,114 66,113 66,74ZM147,333 144,336 142,361 143,362 144,383 145,384 146,392 148,397 153,400 156,397 156,389 155,388 152,367 151,366 150,336ZM109,332 107,334 107,341 106,342 106,353 107,354 106,355 106,366 105,367 105,374 104,375 104,384 99,404 99,417 100,418 102,418 107,411 111,397 112,387 113,386 113,379 114,378 113,377 114,374 114,341 113,340 114,339 113,335ZM104,310 98,314 98,319 100,321 103,322 119,321 124,326 124,404 123,405 123,428 125,434 128,436 130,435 133,427 132,374 133,373 133,338 134,337 133,335 134,334 134,325 137,321 156,321 158,319 158,315 155,312 150,310 137,309 136,308 122,308 121,309ZM99,291 100,294 104,296 114,296 115,295 151,295 155,293 155,289 152,286 145,284 138,284 137,283 117,283 116,284 105,285ZM193,279 189,280 187,283 187,340 186,344 181,349 178,350 168,350 164,351 161,354 162,360 165,361 183,361 187,363 187,398 186,401 181,404 158,406 151,409 148,413 148,417 151,419 159,419 160,418 167,418 168,417 182,417 183,416 185,417 186,416 203,416 204,417 226,419 227,418 231,418 234,415 233,412 227,407 218,406 217,405 200,404 197,401 198,363 201,361 212,361 213,362 218,361 219,360 219,355 216,352 211,350 203,350 197,344 197,322 198,321 198,302 199,299 198,298 198,286ZM367,278 365,280 362,293 362,303 366,314 372,320 383,326 389,332 390,338 386,339 385,338 370,337 361,329 357,329 355,331 355,338 358,343 365,348 369,349 377,349 378,348 379,349 391,350 394,353 396,360 394,362 390,363 389,362 387,363 378,363 373,365 361,367 354,370 351,374 352,377 356,380 362,380 369,377 373,377 384,374 388,375 392,374 395,376 397,382 397,392 398,393 398,400 397,401 398,402 398,408 397,409 398,410 398,428 399,429 399,434 401,438 404,438 407,433 407,426 408,425 407,423 407,371 406,370 406,360 405,359 405,354 404,353 402,340 400,334 394,324 394,322 400,316 402,310 402,280 399,276 397,276 394,280 394,304 393,307 387,312 380,312 374,306 374,285 373,281 370,278ZM334,276 331,278 330,281 331,285 330,308 327,315 322,320 318,320 317,319 317,287 315,281 312,279 310,279 305,282 292,294 286,305 285,309 286,314 289,314 296,303 302,297 305,296 308,300 307,304 307,317 303,321 289,323 285,325 283,329 284,333 287,335 303,334 304,333 306,333 308,335 308,343 302,347 296,353 289,368 286,386 285,387 283,412 284,413 284,418 286,422 289,423 292,418 294,386 295,385 297,372 302,361 307,358 308,359 307,426 309,434 311,437 315,436 317,431 317,357 319,355 322,356 326,360 330,369 330,373 332,379 333,396 334,397 335,424 337,427 340,426 343,419 344,397 343,396 342,375 341,374 341,369 339,361 334,352 330,348 325,345 319,344 317,342 317,334 330,329 337,322 340,314 340,307 341,306 340,304 341,302 340,301 339,283 337,278ZM199,159 192,158 190,160 190,163 188,166 145,166 141,167 138,165 136,160 131,160 127,164 124,172 124,182 123,183 124,187 124,211 127,222 129,226 134,231 141,234 146,234 147,235 178,235 179,234 186,234 194,230 197,227 200,221 202,213 202,167 201,166 201,162ZM191,205 191,212 189,217 186,220 177,223 144,223 141,222 136,217 134,212 134,207 137,204 172,204 173,203 183,203ZM133,188 135,181 138,178 141,177 185,176 189,177 192,182 192,190 190,193 136,194 133,191 134,190ZM220,88 217,88 211,91 186,91 185,90 178,90 177,89 169,90 168,94 170,102 170,132 172,139 176,143 186,147 200,148 213,142 217,136 220,123 220,103 221,102 221,95 222,94 222,90ZM181,101 183,100 204,100 208,101 211,105 211,112 209,120 210,121 208,129 203,134 192,135 191,134 185,134 181,131 180,128 180,117 181,116 179,111 179,104ZM306,80 305,81 305,99 302,101 285,100 283,103 283,106 286,109 303,110 306,113 306,118 303,121 290,122 287,124 285,129 285,149 286,150 286,161 287,164 293,171 301,174 304,174 306,176 306,182 304,184 289,184 283,187 282,192 284,195 304,194 306,196 307,200 306,227 307,228 307,234 311,238 314,236 315,225 316,224 315,220 315,197 318,194 330,194 337,191 337,186 332,184 317,184 315,181 315,178 318,174 321,174 328,171 333,166 335,159 335,136 336,135 336,131 334,124 332,122 322,122 321,121 318,122 314,119 314,113 317,110 332,109 334,104 330,101 319,101 316,100 314,98 314,82 312,80ZM316,152 325,152 327,155 326,159 322,164 318,165 315,162 314,155ZM296,152 301,151 306,153 307,161 305,164 302,165 296,161 294,156ZM317,130 322,130 326,133 327,140 325,143 318,144 315,142 314,140 314,133ZM299,130 304,130 307,134 307,140 304,144 298,144 294,141 294,134ZM372,78 370,82 370,104 349,109 345,111 342,115 343,121 349,121 353,119 364,118 365,117 369,117 371,119 371,128 368,132 359,135 354,135 350,131 346,131 344,133 345,146 346,147 346,159 347,160 346,198 345,199 345,211 344,212 344,219 343,220 344,231 348,235 350,233 352,227 354,208 355,207 356,190 361,187 370,186 372,188 372,196 373,197 372,198 373,202 372,203 372,235 374,238 377,238 379,236 380,232 380,192 381,188 383,186 393,186 398,189 400,228 403,234 408,235 410,229 409,228 410,227 410,221 409,220 410,218 408,210 408,195 407,194 408,192 407,190 407,150 408,149 408,142 409,141 409,133 405,131 401,135 396,135 392,133 384,132 381,129 380,126 380,119 383,116 395,117 401,119 402,118 403,119 412,119 413,118 413,114 406,109 399,108 396,106 399,100 400,91 399,90 398,81 395,78 391,78 390,80 389,95 383,102 380,101 380,86 379,85 380,84 379,81 376,78ZM372,166 372,173 370,175 362,177 357,177 356,176 355,172 356,168 358,166 364,164 370,164ZM381,165 384,163 389,163 390,164 391,163 396,165 398,167 398,175 396,177 383,175 380,171ZM371,144 372,149 369,153 362,154 358,156 355,154 355,150 359,145 364,143 370,143ZM380,145 383,142 391,143 398,148 398,154 397,155 393,155 392,154 383,153 380,149ZM151,92 149,91 115,91 114,90 107,90 104,84 104,78 100,76 97,78 95,82 95,92 97,99 101,102 118,101 121,102 124,105 124,112 117,115 110,115 109,116 101,117 97,119 94,123 94,126 96,128 111,126 114,129 112,138 96,169 96,173 97,174 102,173 111,163 119,146 122,129 125,126 131,126 133,128 134,143 136,148 141,155 144,155 146,150 146,143 144,140 141,128 144,125 149,125 150,126 155,125 157,123 157,120 154,117 149,115 134,114 131,111 131,105 135,101 147,101 152,98ZM251,66 250,68 250,83 251,84 251,98 250,99 250,115 251,116 250,120 251,121 250,122 250,133 251,134 250,137 250,250 249,251 70,251 69,252 69,258 71,259 100,259 101,258 118,258 119,259 134,259 135,258 141,258 142,259 148,259 149,258 154,258 155,259 164,259 165,258 194,258 195,259 209,258 210,259 212,258 213,259 225,259 226,258 249,258 250,259 250,444 251,445 257,445 257,440 258,439 257,437 257,419 258,418 258,413 257,412 257,405 258,404 258,398 257,397 258,393 258,384 257,383 257,379 258,378 258,341 257,340 257,329 258,328 258,323 257,322 257,317 258,316 258,308 257,307 258,263 257,261 259,258 440,258 441,257 441,252 440,251 259,251 257,249 258,247 258,240 257,239 258,236 258,223 257,222 257,217 258,216 258,205 257,204 257,198 258,197 258,175 257,174 258,172 258,148 257,147 257,137 258,136 258,121 257,120 257,111 258,110 258,102 257,101 258,78 257,76 258,75 258,69 256,66Z"/>
</svg>
